<?xml version="1.0" standalone="no"?>
<!DOCTYPE svg PUBLIC "-//W3C//DTD SVG 1.1//EN" "http://www.w3.org/Graphics/SVG/1.1/DTD/svg11.dtd" >
<svg xmlns="http://www.w3.org/2000/svg">
<metadata></metadata>
<defs>
<font id="alipayregular" horiz-adv-x="2048" >
<font-face units-per-em="2048" ascent="1917" descent="-131" />
<missing-glyph horiz-adv-x="512" />
<glyph horiz-adv-x="0" />
<glyph unicode="&#xd;" horiz-adv-x="512" />
<glyph horiz-adv-x="0" />
<glyph horiz-adv-x="0" />
<glyph unicode=" "  horiz-adv-x="512" />
<glyph unicode="&#x09;" horiz-adv-x="512" />
<glyph unicode="&#xa0;" horiz-adv-x="512" />
<glyph unicode="0" />
<glyph unicode="1" />
<glyph unicode="2" />
<glyph unicode="3" />
<glyph unicode="4" />
<glyph unicode="5" />
<glyph unicode="6" />
<glyph unicode="7" />
<glyph unicode="8" />
<glyph unicode="9" />
<glyph unicode="@" horiz-adv-x="1830" d="M77 1220.5q3 190.5 3 440.5q184 55 387 101t438 59q121 -12 227.5 -27.5t206 -35t194.5 -44t193 -53.5q0 -262 4.5 -458.5t-6 -347t-45 -266.5t-111.5 -216.5t-207 -194.5t-329 -201q-74 -41 -128 -39.5t-124 42.5q-199 109 -328.5 207t-207.5 201.5t-113 222t-46 269 t-8 341zM189.5 1173.5q-3.5 -165.5 7 -294.5t41 -231.5t97 -192.5t178.5 -174t284 -179q61 -35 107.5 -35t109.5 35q172 92 283.5 173t178 167t96.5 186.5t39 230.5t5 300t-4 395q-84 25 -166 45.5t-168 37t-177 30.5t-196 25q-205 -10 -379 -50t-333 -88 q0 -215 -3.5 -380.5zM283 711v8q2 61 30.5 101t72.5 61.5t100.5 29t115.5 2.5q68 -4 131.5 -19t108.5 -34q14 -6 36.5 -15t39.5 -16q61 74 96 134.5t59 99.5h-471h-12v57h12h232v129h-232h-106v58h106h232v104q2 6 10 14q8 6 23.5 10.5t43.5 6.5l93 2v-137h348v-58h-348 v-129h276l-16 -28q-17 -29 -47.5 -75t-74.5 -106.5t-100 -124.5q25 -10 66 -27.5t88 -35.5q51 -18 84 -32.5t61.5 -25t58.5 -18.5t75 -14q25 -4 44 -4h23q-53 -57 -96 -82t-85 -25t-89 18.5t-109 49.5q-63 31 -117.5 61.5t-84.5 46.5q-57 -57 -100.5 -92t-92.5 -57 q-72 -35 -166 -45q-57 -4 -113.5 4t-101.5 32.5t-73.5 66.5t-30.5 104zM352 713q0 -35 17.5 -60.5t44 -41t58.5 -23.5t63 -8q32 -2 67 4q80 14 137.5 62t112.5 114q-23 12 -47.5 25.5t-48.5 23.5q-29 14 -69 25.5t-85 15.5q-45 6 -90 2t-80 -19.5t-57.5 -44t-22.5 -75.5z " />
<glyph unicode="A" horiz-adv-x="6076" d="M10 471q2 98 53.5 177t131 135.5t179.5 84.5q87 25 173 25h24q96 -4 186.5 -23.5t173.5 -46t157.5 -58.5t140.5 -58q27 -12 56.5 -22.5t60.5 -22.5q63 82 107 160.5t72.5 143t44 109.5t19.5 62h-958v106h452v246h-628v106h628v199q2 16 19 29q14 10 44 18t85 8l172 -2 v-252h647v-106h-647v-246h512l2 2q-16 -127 -65.5 -247.5t-102.5 -217.5q-63 -113 -137 -211q96 -31 197.5 -62.5t209.5 -62.5q66 -18 140.5 -34.5t156.5 -30.5v917q-35 -16 -71 -34q-33 -16 -72 -34t-78 -32l-45 68q164 115 251 213t128 170q47 84 55 155q2 16 19 29 q13 9 43 19q24 8 67 8h19h102h43q-2 -31 -8 -64t-14 -59q-8 -31 -21 -60q-16 -39 -39.5 -79t-58.5 -80v-1178q154 -16 317.5 -24t337.5 -11v1075h-557h-45v111h45h557v313q2 16 19 29q14 10 42.5 18.5t84.5 8.5h172v-369h168v-111h-168v-1077q233 4 466.5 15.5t462.5 27.5 v549h-434v108h434v281h-327h-35h-266v404q4 18 36 32q30 12 90 20q35 5 89 5q38 0 86 -2v-62l327 11v112q2 14 19 27q14 10 44 19.5t87 9.5h33h139v-156l502 16h13q65 0 95 -37q32 -41 35 -96l-23 -180q-10 -29 -25 -49.5t-44 -20.5h-12v-53h-541v-281h461v-108h-461v-520 q311 31 581.5 71.5t475.5 85.5q18 4 36.5 5.5t34.5 5.5q16 -14 16 -31q0 -8 -4 -17q-10 -28 -39.5 -61t-73.5 -70.5t-89 -77.5t-86 -80t-64 -77q-18 -31 -37.5 -49.5t-43 -28.5t-54.5 -14t-69 -8q-244 -23 -525.5 -45.5t-579.5 -35t-605.5 -12.5t-602.5 20.5t-571 67 t-512 123.5q-184 59 -327.5 124t-266.5 128q-18 -16 -37.5 -33.5t-40.5 -33.5q-131 -109 -244.5 -170.5t-207 -92t-164 -37.5t-115.5 -10q-12 0 -23.5 1.5t-19.5 1.5h-33h13q10 0 20 -1.5t23 -1.5q-6 0 -13.5 -1t-13.5 -1q-123 0 -230.5 29t-187.5 85t-126 141 q-44 81 -44 189v9zM217 469q0 -90 37 -150.5t94.5 -95.5t129 -49t140.5 -14q117 0 263.5 88t306.5 237l35 35q-66 35 -126.5 64.5t-125.5 56.5q-70 29 -112 48.5t-79 27.5q-107 28 -239 28h-9h-6q-55 -12 -110.5 -30.5t-99.5 -50t-71.5 -78.5t-27.5 -117zM371 59h2h-2z M399 49q12 -4 19 -4q-7 0 -19 4zM432 41q8 -2 15.5 -4t17.5 -4q-10 2 -17.5 4t-15.5 4zM469 33q10 -2 19.5 -3t19.5 -3q-10 2 -19.5 3t-19.5 3zM514 27q10 -2 18.5 -2t16.5 -2q-8 2 -16.5 2t-18.5 2zM2738 1071q16 23 34.5 43.5t35.5 36.5q18 20 35 37q16 16 36 35 q16 16 38 34.5t44 34.5q14 14 33 14.5t35 -14.5q23 -18 43 -35.5t37 -33.5q20 -18 37 -35q16 -16 35 -37q16 -16 33.5 -36.5t33.5 -43.5q16 -16 16.5 -35.5t-16.5 -34.5q-16 -23 -33.5 -43t-33.5 -36q-18 -20 -35 -37q-16 -16 -37 -35q-16 -16 -36.5 -34.5t-43.5 -35.5 q-16 -16 -35 -16t-33 16q-23 16 -45 35t-39 35q-20 18 -36 35q-16 16 -35 37q-16 16 -33.5 36.5t-34.5 42.5q-13 13 -13 31q0 22 13 39zM4211 1389h297h30h183h139h29h319l21 170q0 18 -13.5 31.5t-32.5 13.5l-323 -11v-2l-139 -6l-183 -6v2l-327 -10v-182zM5024 635 q-10 14 -10 27.5t10 25.5q14 16 27.5 32.5t25.5 29.5q12 14 27 28q12 14 26 27q12 10 28.5 23.5t33.5 27.5q27 23 53 0q16 -14 32.5 -27.5t28.5 -23.5q15 -13 27 -27t27 -28q10 -12 24.5 -28.5t28.5 -33.5q20 -25 0 -53q-14 -16 -28.5 -31.5t-24.5 -28.5q-14 -14 -27 -28 q-12 -14 -27 -27q-25 -25 -61 -51q-14 -14 -27 -13.5t-26 13.5q-37 27 -62 51q-14 12 -26 27q-14 14 -27 28q-27 25 -53 60zM5603 1839v19h113v-19h-47v-125h-19v125h-47zM5734 1714v144h29l41 -123l41 123h25v-144h-19v117l-39 -117h-18l-41 119v-119h-19z" />
<glyph unicode="B" horiz-adv-x="5650" d="M160 492q0 70 22.5 132t68.5 106q45 44 117 66q56 18 131 18q20 0 40 -1q-51 -10 -103.5 -24.5t-94.5 -42t-68.5 -70.5t-26.5 -107q0 -78 31.5 -129t82 -81.5t111.5 -43t123 -12.5q98 0 226 76t265 205q94 88 158 181t105 172t60 135t26 75h-830v94h391v211h-542v92h542 v172q2 14 17 25q12 10 37.5 16t72.5 6h150v-219h559v-92h-559v-211h442h2q-20 -168 -94 -311.5t-158 -249.5q-98 -125 -215 -229q-113 -94 -211 -147.5t-179 -79t-142.5 -33t-100.5 -9.5q-10 0 -20 1t-18 1h-15q-72 0 -140 18q-75 20 -133.5 58.5t-94 97t-35.5 134.5z M1831 1257q141 98 218 183.5t112 148.5q41 74 47 135q2 14 16 25q12 10 38 16.5t73 6.5l88 -3h37q0 -27 -6.5 -54t-12.5 -50q-8 -27 -18 -51q-14 -35 -35 -70t-49 -69v-1082q-84 10 -152.5 17.5t-124.5 15.5v860q-31 -16 -63 -31q-29 -14 -62.5 -28.5t-66.5 -26.5z M2384 1358v94h39h481v272q2 14 16 25q12 10 38 16.5t73 6.5l147 -3v-317h146v-94h-146v-1006q-72 0 -140 1t-134 3v1002h-481h-39zM3441 1272v350q4 16 32 29q25 10 77 16q31 4 79 4q32 0 72 -2v-51l282 8v98q2 12 17 23q12 10 37.5 17.5t74.5 7.5h29l119 -3v-133l434 15h13 q57 0 83 -32q30 -36 29 -83l-21 -158q-8 -23 -20 -41t-39 -18h-10v-47h-469v-242h399v-94h-399v-522q-29 -4 -59.5 -6t-59.5 -7q-39 -4 -78 -7t-80 -7v549h-374v94h374v242h-282h-31h-229zM3701 1366h256h26h158h119h26h275l20 147q-2 16 -12 26.5t-27 10.5l-282 -8v-2 l-119 -4l-158 -6v2l-282 -8v-158zM4905 1755v14h96v-14h-41v-108h-16v108h-39zM5018 1647v122h24l35 -104l37 104h20v-122h-14v102l-35 -102h-14l-37 102v-102h-16z" />
<glyph unicode="C" horiz-adv-x="5396" d="M127 371q0 82 43 148.5t109.5 112.5t149.5 70q76 22 154 21h13q82 -4 156.5 -20.5t144.5 -39t132.5 -49t117.5 -49.5q123 -49 295 -106.5t364 -110.5q197 -57 462 -84.5t565 -33.5q98 -2 197 -3q206 -1 418 9q316 14 614 40.5t558 63.5t449 80q16 4 30.5 4t28.5 4 q14 -12 14 -28t-15 -36q-30 -40 -83 -87.5t-111.5 -97.5t-88.5 -97q-31 -51 -68 -64.5t-105 -21.5q-205 -18 -439 -36t-484 -30q-230 -11 -465 -11h-41q-256 1 -504 18.5t-478 55.5t-429 103q-160 53 -286 109.5t-230.5 112t-197.5 104.5t-187 90q-57 25 -93 40t-67 23 q-45 10 -98.5 17.5t-108.5 7.5q-66 -2 -128 -18.5t-110.5 -51t-78 -92t-29.5 -139.5q0 -74 34 -131t88 -96t123.5 -58.5t141.5 -19.5q8 0 17.5 -1t19.5 -1h-23q-102 0 -192 23.5t-156 71.5q-67 49 -106 119q-37 67 -37 156v9zM2408 813q-12 14 -12 28.5t12 28.5l32 36t28 32 q14 16 29 33q14 14 30 28q14 12 30.5 27.5t37.5 30.5q14 14 28 13.5t29 -13.5q18 -16 35.5 -30.5t32.5 -27.5q16 -14 30 -28t29 -31q12 -14 26.5 -32.5t30.5 -37.5q14 -14 14 -28.5t-14 -28.5q-14 -18 -29.5 -35.5t-27.5 -32.5q-14 -16 -29 -30q-14 -14 -30 -29 q-14 -12 -31.5 -27.5t-36.5 -29.5q-16 -16 -30 -15.5t-27 15.5q-20 14 -37.5 29.5t-32.5 27.5q-17 15 -31 29t-28 30q-12 14 -27.5 32t-30.5 36zM4321 506q-8 12 -8 23.5t8 21.5q10 14 22.5 28.5t22.5 24.5q10 12 23 23q10 12 22 22q10 10 22.5 20.5t29.5 20.5 q10 12 20.5 12t22.5 -12q14 -10 28.5 -20.5t24.5 -20.5q12 -10 22 -22q10 -10 21 -23q10 -10 21.5 -24.5t23.5 -28.5q8 -10 8 -21.5t-8 -23.5q-12 -14 -23.5 -26.5t-21.5 -22.5q-10 -12 -21 -23q-10 -12 -22 -22q-10 -10 -24.5 -22.5t-28.5 -22.5q-10 -11 -22 -11 q-11 0 -21 11q-16 10 -28.5 22t-23.5 23q-12 10 -22 22q-12 10 -23 23q-10 10 -22 22.5t-23 26.5z" />
<glyph unicode="D" horiz-adv-x="1798" d="M66 1224q4 192 4 443q184 55 389 101.5t442 58.5q121 -12 227.5 -28.5t206 -36t195.5 -43t194 -52.5q0 -263 4 -461q1 -60 2 -114q0 -130 -8 -236q-10 -152 -45 -267.5t-111.5 -216t-206.5 -194.5t-331 -203q-71 -40 -125 -40q-2 1 -4 1q-55 2 -125 39 q-201 109 -331 207.5t-207.5 202.5t-113.5 224q-36 119 -48 271q-9 116 -8 256q-1 43 0 88zM274 711q2 -63 31 -105.5t74 -66t103 -31.5q38 -5 76 -5q19 0 38 1q47 4 89 15t77 28q49 25 92 59.5t102 91.5q31 -16 84 -46.5t119 -61.5q61 -31 108.5 -49.5t90.5 -18.5t86 24.5 t96 82.5h-24.5t-42.5 4q-47 6 -77 14t-58.5 18.5t-61.5 25t-84 32.5q-47 18 -88 35.5t-66 27.5q55 66 99.5 126.5t75 106.5t47 74.5t16.5 30.5l-277 -2v131h349v58h-349v137l-92 -2q-31 -2 -46 -6t-23 -10q-8 -8 -11 -15v-104h-231h-109v-58h109h231v-131h-231h-12v-57h12 h473q-25 -39 -60.5 -100.5t-97.5 -133.5q-16 4 -38.5 14.5t-36.5 16.5q-45 16 -108.5 32.5t-131.5 20.5q-21 1 -43 1q-37 0 -73 -4q-56 -7 -101 -29.5t-74 -62.5t-31 -101v-8zM344 713q0 47 22.5 76.5t57.5 45t80 18.5q15 1 30 1q30 0 62 -4q45 -4 85 -15.5t69 -23.5 q25 -12 50 -25.5t48 -23.5q-57 -66 -114.5 -116t-137.5 -62q-28 -4 -53 -4h-17q-31 0 -62.5 8t-58 23.5t-44 41t-17.5 60.5z" />
<glyph unicode="E" horiz-adv-x="6412" d="M0 274q0 90 28.5 170t87.5 136q60 56 152 86q72 23 166 24q26 0 53 -2q-66 -12 -132 -31.5t-120.5 -55.5t-89 -90t-34.5 -136q0 -100 41 -167t105.5 -106t144 -55t157.5 -16q129 0 293 98t340 264q121 115 204 233.5t135 220t77.5 175.5t31.5 96h-1067v121h506v272h-702 v119h702v221q2 16 21 31q16 12 48 21.5t93 9.5l193 -2v-281h720v-119h-720v-272h571l2 2q-12 -109 -45 -210t-77 -193.5t-97 -173t-107 -150.5q-127 -162 -276 -295q-145 -121 -272 -189.5t-231.5 -102t-183.5 -42t-128 -10.5q-16 0 -27.5 1t-21.5 1h-15q-94 1 -184 23 q-98 24 -174 75.5t-122 126t-46 172.5zM2154 1260q182 129 278.5 237.5t143.5 190.5q53 96 62 174q2 16 20 30q16 12 49 21.5t97 9.5l112 -2h50q-2 -35 -8.5 -70.5t-16.5 -64.5q-10 -35 -25 -68q-18 -41 -43.5 -87t-64.5 -91v-1393q-213 20 -357 43v1106q-41 -18 -81 -39 q-35 -16 -79 -35.5t-87 -35.5zM2865 1389v122h51h621v351q2 16 20 30q16 12 49 21.5t95 9.5l190 -2v-410h189v-122h-189v-1295q-186 0 -354 6v1289h-621h-51zM4227 1280v451q4 20 41 36q32 15 100 23q40 5 100 4q43 0 95 -2v-68l367 11v127q2 16 20 30q16 10 49 20.5 t94 10.5h39l154 -2v-172l559 18h11q34 0 60 -10q30 -12 49 -32.5t29.5 -47t10.5 -57.5l-27 -203q-10 -29 -26.5 -53.5t-49.5 -24.5h-12v-59h-604v-311h514v-123h-514v-672q-80 -10 -154 -18l-202 -19v709h-486v123h486v311h-367h-39h-297zM4563 1399h330h37h202h154h33h354 l25 190q-2 23 -16.5 36t-35.5 13l-360 -12v-2l-154 -4l-202 -8v2l-367 -12v-203zM6113 1903v18h127v-18h-53v-142h-20v142h-54zM6261 1761v160h30l46 -135l47 135h28v-160h-20v131l-45 -131h-19l-47 133v-133h-20z" />
<glyph unicode="F" horiz-adv-x="4270" />
<glyph unicode="G" horiz-adv-x="4112" />
<glyph unicode="H" horiz-adv-x="1798" />
<glyph unicode="I" horiz-adv-x="2129" />
<glyph unicode="J" horiz-adv-x="2064" />
<glyph unicode="K" horiz-adv-x="2359" />
<glyph unicode="L" horiz-adv-x="1720" />
<glyph unicode="M" horiz-adv-x="1972" />
<glyph unicode="N" horiz-adv-x="1570" />
<glyph unicode="O" />
<glyph unicode="P" d="M82 45v1718q0 35 23.5 58.5t58.5 23.5h1720q35 0 58.5 -23.5t23.5 -58.5v-1718q0 -35 -23.5 -59.5t-58.5 -24.5h-1720q-35 0 -58.5 24.5t-23.5 59.5zM289 1014q96 25 174 69v-901h194v1094q76 111 131 338h-204q-70 -348 -295 -488v-112zM739 1126h308q18 -250 55 -432 q53 -258 159.5 -382t266.5 -124q119 0 177 58q54 55 54 170v16h-143q0 -100 -82 -100h-6q-162 8 -225 362q-16 78 -28.5 185.5t-23.5 246.5h490v138h-496q0 156 -6 362h-213q0 -98 3 -187t11 -175h-301v-138zM1384 1595q61 -119 80 -262h170q-10 55 -31.5 121t-56.5 141 h-162z" />
<glyph unicode="Q" horiz-adv-x="1980" d="M27 -23v1844q0 37 24.5 63.5t59.5 26.5h1763q35 0 59.5 -26.5t24.5 -63.5v-1844q0 -35 -24.5 -61.5t-59.5 -26.5h-1763q-35 0 -59.5 27t-24.5 61zM276 623q137 51 259 98v-59h174v-13q0 -154 -90.5 -253t-296.5 -152v-99q552 92 552 467q0 25 -2 50h394v-281 q0 -92 -101 -92h-118v-111h176q106 0 156.5 50.5t50.5 158.5v340q59 -23 127.5 -47.5t146.5 -50.5v104q-305 113 -444 295h444v113h-707q31 70 50 164h593v104h-210q37 98 61 203h-156q-6 -49 -20.5 -99.5t-36.5 -103.5h-219q6 70 6 143v105h-174v-117v-65q-6 -41 -6 -66 h-201q-39 76 -57 203h-156q18 -117 64 -203h-195v-104h524q-18 -94 -55 -164h-533v-113h463q-123 -162 -463 -295v-110zM639 774q193 109 295 254h143q106 -156 277 -254h-715z" />
<glyph unicode="R" horiz-adv-x="2091" d="M117 4v1700q0 35 23.5 58.5t58.5 23.5h1699q35 0 58.5 -23.5t23.5 -58.5v-1700q0 -35 -23.5 -58.5t-58.5 -23.5h-1699q-35 0 -58.5 23.5t-23.5 58.5zM340 942h205v-573q0 -47 -22.5 -65.5t-73.5 -18.5h-68v-103h104q102 0 150.5 44t48.5 143v573h115v-235h121v337h-211 q51 70 96 155t84 190v96h-524v-96h378q-45 -147 -127 -289q-29 84 -90 198h-114q31 -72 55.5 -135t40.5 -119h-168v-102zM907 164q309 90 434 295q131 -201 406 -295v90q-176 88 -257 211t-81 285v266h-139v-266q0 -172 -85 -295t-278 -201v-90zM956 1382h308 q-6 -92 -31 -168h-242v-731h133v629h435v-629h133v731h-314q12 45 25 115q6 33 12 53h332v109h-791v-109z" />
<glyph unicode="S" horiz-adv-x="2383" d="M158 115v829h2050v-829q0 -82 -53.5 -139.5t-131.5 -57.5h-1681q-78 0 -131 57.5t-53 139.5zM158 1241v221q0 82 53 139.5t131 57.5h1681q78 0 131.5 -57.5t53.5 -139.5v-221h-2050zM1452 221h152v187h-152v-187zM1640 221h152v187h-152v-187zM1835 221h152v187h-152 v-187z" />
<glyph unicode="T" horiz-adv-x="2050" d="M94 55v1571l785 -784zM219 1784h1602l-797 -797zM231 -66l334 332h723l-334 -332h-723zM692 401l320 324l313 -324h-633zM1130 846l256 256l383 -381l-258 -252zM1206 -66l740 738v-738h-740zM1516 1233l430 434v-866z" />
<glyph unicode="U" horiz-adv-x="2068" d="M92 -2v1728q0 35 24.5 58.5t59.5 23.5h1727q35 0 59.5 -23.5t24.5 -58.5v-1728q0 -16 -13.5 -32.5t-29.5 -26.5q-18 -14 -41 -25h-1727q-35 0 -59.5 24.5t-24.5 59.5zM608 1444l244 -498h-205v-176h293v-94h-293v-174h293v-215h221v215h297v174h-297v94h297v176h-209 l248 498h-244l-159 -338q-29 -59 -43 -111q-12 49 -43 111l-158 338h-242z" />
<glyph unicode="V" horiz-adv-x="2035" d="M76 2v1718q0 35 23.5 58.5t58.5 23.5h1718q35 0 58.5 -23.5t23.5 -58.5v-1718q0 -35 -23.5 -58.5t-58.5 -23.5h-1718q-35 0 -58.5 23.5t-23.5 58.5zM319 698h324v326h-324v-326zM862 698h326v326h-326v-326zM1407 698h324v326h-324v-326z" />
<glyph unicode="W" horiz-adv-x="2097" d="M111 2v1700q0 35 24.5 58.5t59.5 23.5h1712q35 0 58.5 -23.5t23.5 -58.5v-1700q0 -35 -23.5 -58.5t-58.5 -23.5h-1712q-35 0 -59.5 23.5t-24.5 58.5zM229 381l131 -143l279 251l156 -137l358 432l219 -217l518 670l-155 117l-383 -496l-213 211l-367 -440l-135 121z" />
<glyph unicode="X" horiz-adv-x="2091" d="M123 16v1688q0 35 23.5 58.5t58.5 23.5h1687q35 0 58.5 -23.5t23.5 -58.5v-1688q0 -35 -23.5 -58.5t-58.5 -23.5h-1687q-35 0 -58.5 24t-23.5 58zM389 891q0 -92 44 -194.5t128 -184.5t206 -130q94 -37 209 -37q33 0 68 3q-37 -8 -65.5 -35.5t-28.5 -64.5q0 -43 38 -73 t81 -30q106 0 207.5 48.5t176.5 134.5t116 204q31 89 31 190q0 32 -3 66q10 -35 37 -60.5t62 -25.5q43 0 65.5 40t22.5 83q0 90 -38 187.5t-114 177.5t-188.5 130t-259.5 50q29 12 50 38t21 56q0 43 -37.5 74t-78.5 31q-111 0 -211.5 -47t-176 -133t-117.5 -208 q-37 -107 -37 -233q0 -18 1 -37q14 29 42 46.5t62 17.5q35 0 64 -19q-2 17 -2 34q0 50 14 100q18 68 56 129q49 74 120.5 110.5t153.5 36.5q6 0 10 -2t12 -2h13q39 0 59.5 -35t20.5 -76q0 -33 -19 -59q20 4 29 4q78 0 145.5 -31.5t118.5 -82t80 -112t29 -118.5 q0 -27 -11 -51q-23 -63 -90 -64q-37 0 -63 19l2 -30q0 -63 -22 -128q-26 -80 -79 -141q-47 -57 -110.5 -87t-132.5 -30q-23 0 -47 10q-31 14 -49.5 42t-18.5 63q0 31 16 59q-10 -2 -30 -2q-80 0 -150.5 31.5t-123 83t-82 112t-29.5 119.5q0 25 10 49q-4 39 -32.5 71 t-67.5 32q-43 0 -75 -38t-32 -81zM610 860q0 -53 28 -108.5t76 -101.5t110.5 -76.5t133.5 -32.5q23 -2 46.5 3t46.5 13q-43 18 -89.5 55t-84 81t-61 89t-23.5 78q0 37 -27 63.5t-64 26.5q-39 0 -65.5 -26.5t-26.5 -63.5zM794 1054q-5 -32 -6 -63q0 -47 13 -92q14 43 50 90 t80 87t91 65.5t86 25.5q37 0 63.5 27t26.5 63q0 39 -26.5 66t-63.5 27q-76 0 -141.5 -38t-112.5 -110q-46 -68 -60 -148zM1008 455q0 -39 26.5 -64.5t65.5 -25.5q66 0 123 27.5t102 80.5q35 41 57.5 88.5t30.5 100.5q3 24 3 48q0 31 -5 60q-2 23 -8 33q-16 -41 -47 -83 t-70 -79t-81 -62.5t-79 -31.5l-4 -2h-22q-39 0 -65.5 -26.5t-26.5 -63.5zM1145 1159q45 -16 92 -53t86 -82t64.5 -91t25.5 -81q0 -37 26.5 -63.5t65.5 -26.5q41 0 58.5 29.5t17.5 60.5q0 55 -27.5 111.5t-74.5 103.5t-110.5 77t-135.5 30q-23 0 -44.5 -4.5t-43.5 -10.5z" />
<glyph unicode="Y" d="M51 856q0 25 19 43l917 918q18 18 45 18t45 -18l918 -918q18 -18 18 -44t-18 -44l-918 -920q-18 -18 -44.5 -18t-45.5 18l-917 920q-19 19 -19 45zM420 913h69q31 82 123 82q104 0 103 -108h-103q-188 0 -188 -135q0 -121 170 -121h182v272q0 141 -164 141h-4 q-147 0 -188 -131zM483 756q0 82 125 82h107v-160h-119q-113 0 -113 78zM864 631h172q211 0 209 205q-4 208 -207 208h-2h-96v187h-76v-600zM940 678v317h78q149 0 149 -162q0 -155 -147 -155h-2h-78zM1311 831q0 -98 51 -149t149 -55h6q120 0 179 82v63q-70 -94 -162 -94 q-143 0 -143 153q0 158 116 162q86 0 115 -86h74q-40 135 -185 135h-4q-94 -2 -145 -55t-51 -156z" />
<glyph unicode="Z" horiz-adv-x="2080" d="M68 -14v1767q0 35 25.5 59.5t60.5 24.5h1765q35 0 60.5 -24.5t25.5 -59.5v-1767q0 -35 -25.5 -60.5t-60.5 -25.5h-1765q-35 0 -60.5 25.5t-25.5 60.5zM528 1112h283q37 250 207 250q152 0 158 -168q0 -63 -38 -125.5t-120 -120.5q-92 -63 -134 -136t-42 -165v-76h282v58 q1 115 138 219q221 166 221 345v13q-8 166 -123 253t-342 91h-11q-418 0 -479 -438zM836 182h307v295h-307v-295z" />
<glyph unicode="[" horiz-adv-x="2537" d="M152 18v1629q0 33 22.5 56t54.5 23h1602l-307 -239h-1135v-1309h1309v520l239 248v-928q0 -33 -23.5 -55t-55.5 -22h-1629q-33 0 -55 22.5t-22 54.5zM530 971l375 295l320 -301q96 82 189 156.5t169 133.5q88 68 170 129q82 59 176 125q80 55 180.5 124t208.5 136 l99 -133q-29 -16 -66 -44.5t-78 -63.5t-83 -73t-81 -75q-92 -88 -190 -186q-109 -111 -227 -248q-104 -117 -232.5 -275.5t-263.5 -344.5z" />
<glyph unicode="\" horiz-adv-x="1878" d="M39 1243v277q0 25 24 24h443q10 0 17 7.5t7 17.5v280q0 10 7.5 17.5t17.5 7.5h772q10 0 17.5 -7t7.5 -18v-280q0 -10 7 -17.5t17 -7.5h443q10 0 17 -7t7 -17v-277q0 -10 -7 -17t-17 -7h-117q-10 0 -17.5 -7.5t-7.5 -17.5v-1262q0 -10 -7 -17t-17 -7h-1426q-25 0 -24 24 v1262q0 10 -7.5 17.5t-17.5 7.5h-115q-25 0 -24 24zM365 92q0 -10 7 -17t17 -7h1102q10 0 17.5 7t7.5 17v1102q0 10 -7.5 17.5t-17.5 7.5h-1102q-10 0 -17 -7.5t-7 -17.5v-1102zM530 260v772q0 10 7.5 17.5t17.5 7.5h113q10 0 17 -7.5t7 -17.5v-772q0 -10 -7 -17t-17 -7 h-113q-10 0 -17.5 7t-7.5 17zM694 1569q0 -10 7.5 -17.5t17.5 -7.5h444q10 0 17.5 7.5t7.5 17.5v121q0 10 -7 17t-18 7h-444q-10 0 -17.5 -7t-7.5 -17v-121zM858 260v772q0 10 7 17.5t18 7.5h112q10 0 17.5 -7.5t7.5 -17.5v-772q0 -10 -7 -17t-18 -7h-112q-10 0 -17.5 7 t-7.5 17zM1184 260v772q0 10 7 17.5t17 7.5h113q10 0 17.5 -7.5t7.5 -17.5v-772q0 -10 -7.5 -17t-17.5 -7h-113q-10 0 -17 7t-7 17z" />
<glyph unicode="]" horiz-adv-x="2252" d="M68 -96v1345h561v-1345h-561zM838 -96v952h559v-952h-559zM1606 -96v1904h559v-1904h-559z" />
<glyph unicode="^" horiz-adv-x="2328" d="M74 1034h444v377h1315v-377h444l-1101 -1114zM518 1585v199h1315v-199h-1315z" />
<glyph unicode="_" horiz-adv-x="2095" d="M80 2v1731q0 39 26.5 65.5t65.5 26.5h1731q37 0 63.5 -26.5t26.5 -65.5v-1731q0 -37 -27 -63.5t-63 -26.5h-1731q-39 0 -65.5 26.5t-26.5 63.5zM598 799q33 12 68 20q29 8 61.5 14.5t58.5 6.5q-25 -113 -33 -200t-4.5 -152.5t16.5 -112.5t30 -78q38 -74 106 -94 q98 -8 195 24q41 14 84 39t86 63t81.5 93t71.5 131q-63 -47 -113.5 -64.5t-86.5 -19.5q-43 -4 -76 10q-29 23 -37 90q-6 57 6 171t70 309q-59 12 -111.5 11t-91.5 -9q-47 -8 -84 -23q-39 -18 -86 -49q-41 -27 -95.5 -71t-115.5 -109zM813 1364q0 -43 17.5 -80t48 -64.5 t72.5 -44t89 -16.5t88 16.5t72 44t49.5 64.5t18.5 80t-18.5 80t-49.5 64.5t-72 43t-88 15.5t-89 -15.5t-72.5 -43t-48 -64.5t-17.5 -80z" />
<glyph unicode="`" horiz-adv-x="1994" d="M0 1014v319h401q-86 53 -133 122t-57 140q-8 53 4 102.5t41 89.5t73 70.5t99 47.5q39 12 82 12q96 0 173 -55.5t134 -133t96 -161.5t60 -140h78q20 55 59 139.5t96.5 163t135 135t174.5 56.5q41 0 81 -12q113 -33 172.5 -118t45.5 -192q-10 -72 -59.5 -142.5 t-139.5 -123.5h379v-319h-1995zM174 -127v1063h711v-1063h-711zM410 1624q4 -27 25.5 -57.5t63.5 -58t105.5 -48t149.5 -26.5q-23 51 -51.5 102t-60.5 90t-65.5 63.5t-66.5 24.5q-16 0 -27 -2q-29 -10 -53 -29.5t-20 -58.5zM1110 -127v1063h711v-1063h-711zM1272 1438 q86 6 149.5 26.5t105.5 48t63.5 58.5t25.5 57q6 41 -19.5 60.5t-54.5 27.5q-8 2 -14 3t-12 1q-33 0 -67 -24.5t-65.5 -64.5t-60 -90t-51.5 -103z" />
<glyph unicode="a" horiz-adv-x="1867" d="M150 1610q165 36 294 36q30 0 58 -2q149 -10 248 -38q115 -35 194 -95q45 -39 80 -68.5t70.5 -48t80.5 -25.5q24 -4 55 -4q26 0 58 3q53 6 123 18q59 10 142 29t186 49q-45 -139 -90 -231t-84 -150q-45 -68 -86 -104q-80 -66 -161 -98.5t-164 -46t-167 -15.5t-170 -6 q-41 -2 -79 -18.5t-71.5 -38t-61 -47t-46.5 -45.5l105 -721l-269 -39z" />
<glyph unicode="b" horiz-adv-x="2027" d="M154 -115q0 141 32.5 265t91 227.5t138.5 182.5t176 130q-92 78 -146.5 192.5t-54.5 250.5q0 117 41 219t112.5 179t168 122t207.5 45q109 0 205 -45t167.5 -122t113.5 -179.5t42 -218.5q0 -133 -52.5 -245t-140.5 -190q49 -29 93 -61v-213h-277v-332h277v-207h-1194z M1153 158v204h270v271h203v-271h270v-204h-270v-271h-203v271h-270z" />
<glyph unicode="c" horiz-adv-x="2093" d="M152 -8v1628q0 33 22.5 55.5t56.5 22.5h1627q33 0 56 -22.5t23 -55.5v-1628q0 -33 -23.5 -56.5t-55.5 -23.5h-1627q-35 0 -57 23.5t-22 56.5zM309 137l656 651l-656 646v-1297zM377 1532l667 -655l662 655h-1329zM383 72h639l289 288h-641zM776 457h535l-269 266z M1128 793l316 -316l201 203l-314 313zM1188 72h584v581zM1407 1073l365 -364v731z" />
<glyph unicode="d" horiz-adv-x="2838" d="M160 184v1481h2025v-782l-233 114v435h-1559v-1012h471l238 -236h-942zM1032 526l787 650v-390q96 -10 209 -42t217 -91q104 -63 192 -157q76 -80 146.5 -200t95.5 -280q-84 78 -179.5 131.5t-179.5 88.5q-98 39 -192 65q-67 16 -140 16h-16q-82 -2 -153 -12v-428z" />
<glyph unicode="e" horiz-adv-x="2750" d="M229 209v1454h1950v-291h363v-1431h-2012v268h-301zM375 354h155v1018h1504v146h-1659v-1164zM700 768h1696v289h-1696v-289z" />
<glyph unicode="f" horiz-adv-x="2695" d="M109 -12v432h419v-432h-419zM109 670v430h419v-430h-419zM109 1393v430h419v-430h-419zM754 -12v432h1845v-432h-1845zM754 670v430h1845v-430h-1845zM754 1393v430h1845v-430h-1845z" />
<glyph unicode="g" horiz-adv-x="1931" d="M10 2v1511q0 45 32 76t77 31h139v223q0 29 20.5 50.5t51.5 21.5h241q31 0 51.5 -21.5t20.5 -50.5v-223h631v223q0 29 21.5 50.5t50.5 21.5h229q29 0 50.5 -21.5t21.5 -50.5v-223h153q45 0 77 -30.5t32 -76.5v-1511q0 -45 -32 -76.5t-77 -31.5h-1681q-45 0 -77 31.5 t-32 76.5zM260 143h256v254h-256v-254zM260 524h256v256h-256v-256zM260 907h256v254h-256v-254zM369 1460h153v355h-153v-355zM643 143h254v254h-254v-254zM643 524h254v256h-254v-256zM643 907h254v254h-254v-254zM1024 143h254v254h-254v-254zM1024 524h254v256h-254 v-256zM1024 907h254v254h-254v-254zM1380 1460h154v355h-154v-355zM1405 143h254v254h-254v-254zM1405 524h254v256h-254v-256zM1405 907h254v254h-254v-254z" />
<glyph unicode="h" horiz-adv-x="2484" d="M148 1080q-3 27 -3 54q0 82 24 162q32 106 100.5 189.5t172 133.5t234.5 50q129 -4 242 -41q49 -16 98 -41.5t93 -62.5t79.5 -86t58.5 -115q25 63 63 113.5t81 87.5t90 61.5t92 40.5q106 37 223 43q139 0 245.5 -47t176.5 -127q70 -81 100 -183q20 -69 19 -141 q-1 -37 -5 -73q-14 -112 -74 -222t-173 -206q-57 -45 -168 -138q-94 -78 -256 -218t-414 -361q-242 197 -407.5 332t-270.5 221q-123 100 -198 164q-104 84 -158.5 192t-64.5 218z" />
<glyph unicode="i" horiz-adv-x="2154" d="M31 1145l704 141l350 627l353 -627l704 -141l-487 -527l84 -714l-654 301l-651 -301l84 714z" />
<glyph unicode="j" horiz-adv-x="2041" d="M10 788v232q0 29 21.5 50.5t50.5 21.5h100q29 0 56.5 19t37.5 48l37 94q10 29 7 61t-25 54l-70 70q-23 23 -22.5 51.5t22.5 48.5l164 164q23 23 51.5 22.5t51.5 -22.5l67 -68q23 -23 54.5 -25.5t60.5 7.5l94 39q29 12 49.5 38.5t20.5 55.5v96q0 31 20.5 51.5t50.5 20.5 h232q29 0 50 -20.5t21 -51.5v-96q0 -29 19.5 -55.5t48.5 -38.5l94 -39q29 -10 61.5 -7t53.5 25l70 68q20 23 49.5 22.5t50.5 -22.5l164 -164q23 -20 22.5 -49t-22.5 -51l-70 -70q-23 -23 -26 -55.5t8 -59.5l37 -94q12 -29 38.5 -48t55.5 -19h100q29 0 50.5 -21.5t21.5 -50.5 v-232q0 -29 -21.5 -50t-50.5 -21h-102q-29 0 -56.5 -20.5t-38.5 -49.5l-38 -88q-10 -29 -6 -61.5t24 -53.5l74 -73q23 -23 22.5 -51.5t-22.5 -51.5l-164 -164q-20 -20 -50 -20t-50 20l-76 76q-23 23 -54.5 26t-60.5 -7l-88 -37q-29 -10 -48.5 -37t-19.5 -57v-107 q0 -29 -21.5 -50.5t-49.5 -21.5h-232q-31 0 -51 21.5t-20 50.5v107q0 31 -20.5 57.5t-49.5 36.5l-88 37q-29 10 -60.5 7t-54.5 -26l-73 -76q-23 -20 -51.5 -20t-51.5 20l-164 164q-23 23 -22.5 51.5t22.5 51.5l74 73q23 20 26 53t-8 62l-38 88q-10 29 -37 49.5t-58 20.5 h-102q-29 0 -50.5 21.5t-21.5 49.5zM659 909q0 -76 29 -142.5t78 -115.5t115.5 -77.5t142.5 -28.5t142.5 28.5t115.5 77.5t78 116t29 142q0 76 -29 142.5t-78 116t-115.5 78t-142.5 28.5t-142.5 -28.5t-115.5 -78t-78 -116t-29 -142.5z" />
<glyph unicode="k" horiz-adv-x="2045" d="M-8 891q0 141 37 272t103.5 245t159.5 207t206.5 159.5t245 103.5t272.5 37q211 0 398.5 -81t325.5 -219t219 -325.5t81 -398.5q0 -213 -81 -398.5t-219 -324.5t-325.5 -219t-398.5 -80q-213 0 -399.5 80t-324.5 219t-219 324.5t-81 398.5zM544 549v-6q0 -27 8 -51 q9 -28 30 -48q20 -20 47.5 -29t56.5 -8t57.5 14t51.5 36l241 241l240 -241q46 -47 110 -51h10q57 0 95 38q19 20 29 48q8 23 8 47v10q-2 29 -14.5 57.5t-36.5 50.5l-240 242l240 242q25 23 37 51q12 30 14 58v9q0 23 -8 47q-10 28 -29 48q-38 38 -96 38h-9q-64 -3 -110 -51 l-240 -241l-241 241q-23 23 -51.5 36.5t-57.5 14.5h-6q-26 0 -50 -8q-28 -10 -48 -30t-30 -48q-9 -25 -8 -51v-5q1 -28 14 -57.5t36 -51.5l242 -242l-242 -242q-23 -23 -36 -51t-14 -57z" />
<glyph unicode="l" horiz-adv-x="2019" d="M-6 891q0 209 80 392t216 320.5t319 216t392 78.5t393.5 -78.5t320.5 -216t216 -320.5t80 -392t-80 -392.5t-216 -320.5t-320.5 -216t-393.5 -79t-392 79t-319 216t-216 320.5t-80 392.5zM803 340l680 594l-680 594v-1188z" />
<glyph unicode="m" d="M4 899q0 211 80 397.5t219 325.5t324.5 219t398.5 80q211 0 397.5 -80t324.5 -219t219 -325.5t81 -397.5t-81 -397.5t-219 -324.5t-324.5 -219t-397.5 -81q-213 0 -398.5 81t-324.5 219t-219 324.5t-80 397.5zM371 756h512v-510h286v510h510v286h-510v512h-286v-512h-512 v-286z" />
<glyph unicode="n" horiz-adv-x="1720" d="M6 524v723h414l596 641h172v-2007h-172l-617 643h-393zM1307 473v184q86 0 144 58.5t58 144.5t-58 144.5t-144 58.5v184q80 0 150.5 -30.5t122.5 -83t83 -123t31 -150.5t-31 -150.5t-83 -122.5t-123 -83t-150 -31z" />
<glyph unicode="o" d="M8 885q0 209 80 393t216 321.5t320.5 217t393.5 79.5t393 -79.5t321.5 -217t217.5 -321.5t80 -393t-80 -393.5t-217.5 -320.5t-321.5 -216t-393 -80t-393.5 80t-320.5 216t-216 320.5t-80 393.5zM514 721q0 -29 20.5 -50.5t51.5 -21.5h432v-327l612 575l-612 582v-326 h-432q-31 0 -51.5 -21.5t-20.5 -50.5v-360z" />
<glyph unicode="p" d="M115 215l676 676l-676 676l247 250l678 -676l676 676l250 -250l-678 -676l678 -676l-250 -250l-676 676l-678 -676z" />
<glyph unicode="q" d="M63 870q0 199 76 373t206 304t304 206t373 76t373 -76t305 -206t206.5 -304t75.5 -373t-75.5 -373.5t-206.5 -305t-305 -206t-373 -75.5t-373 75.5t-304 206t-206 305.5t-76 373zM276 819q8 -139 66.5 -262t152 -216t216.5 -150.5t262 -65.5v61h100v-61q139 8 262 65.5 t216.5 150.5t149.5 216t66 262h-65v101h65q-10 139 -66 262t-149.5 216t-216.5 150.5t-262 67.5v-64h-100v64q-139 -10 -262 -67.5t-216.5 -150.5t-151.5 -216t-67 -262h58v-101h-58zM879 866v8v11q2 31 18 102q14 61 42 175t81 302q25 -123 44 -214t34 -152q16 -72 26 -125 q53 -10 125 -27q61 -14 148.5 -33.5t204.5 -46.5q-186 -49 -299 -74.5t-175 -37.5q-72 -14 -102 -17h-4h-2q-10 0 -21.5 2t-21.5 6q-4 0 -12 5q-39 16 -62.5 46.5t-23.5 69.5z" />
<glyph unicode="r" horiz-adv-x="2603" d="M78 772l485 381l416 -391q123 106 246 204.5t221 174.5q115 88 219 166q106 78 227 161q104 72 234.5 161t269.5 177l131 -172q-37 -23 -85 -59.5t-100 -80.5t-107.5 -93t-106.5 -98q-121 -113 -250 -242q-139 -145 -295 -322q-133 -152 -300 -358.5t-341 -448.5z" />
<glyph unicode="s" horiz-adv-x="1957" d="M31 1034q0 166 63.5 313.5t173 257t257 173t315.5 63.5q166 0 313 -63.5t257 -173t173.5 -257t63.5 -313.5q-2 -45 -11 -100q-8 -47 -26.5 -111.5t-50.5 -142.5q-10 -23 -4 -52.5t22 -47.5l332 -330q18 -18 18 -44t-18 -44l-199 -197q-16 -18 -42 -18t-44 18l-332 330 q-16 18 -45.5 24.5t-52.5 -4.5q-78 -35 -142.5 -53t-111.5 -26q-55 -10 -100 -11q-168 0 -315.5 63.5t-257 173t-173 257t-63.5 315.5zM266 1034q0 -119 45 -223t123 -182t182.5 -123t223.5 -45t223 45t182 123t123 182t45 223t-45 223.5t-123 182.5t-182.5 123t-222.5 45 q-119 0 -223.5 -45t-182.5 -123t-123 -182.5t-45 -223.5z" />
<glyph unicode="t" horiz-adv-x="1794" d="M47 641v475q0 51 35 86t84 35q51 0 86 -35t35 -86v-475q0 -51 -35 -87t-86 -36q-49 0 -84 36t-35 87zM356 1311q10 123 86 221t195 151l-98 144q-12 16 2 24q5 4 9 4l15 -10l103 -147q104 41 221 41t221 -41l102 147q7 10 15 10q5 0 10 -4q6 -4 7 -11t-3 -13l-98 -144 q117 -53 192.5 -152t85.5 -220h-1065zM358 367v866h1067v-866q0 -41 -27.5 -68t-66.5 -27h-106v-264q0 -51 -35 -87t-86 -36q-49 0 -84 36t-35 87v264h-186v-264q0 -51 -35 -87t-86 -36q-49 0 -84 36t-35 87v264h-106q-39 0 -67 27t-28 68zM606 1518q0 -25 17.5 -42.5 t40.5 -17.5q25 0 42 17.5t17 42.5t-17.5 42t-41.5 17q-23 0 -40.5 -17.5t-17.5 -41.5zM1063 1518q0 -25 17 -42.5t42 -17.5q23 0 40.5 17.5t17.5 42.5t-17.5 42t-40.5 17q-25 0 -42 -17.5t-17 -41.5zM1491 641v475q0 51 36 86t85 35t84 -35t35 -86v-475q0 -51 -35 -87 t-84 -36t-85 36t-36 87z" />
<glyph unicode="u" horiz-adv-x="1705" d="M94 706q-3 42 -3 83q1 59 7 114q12 94 39 174t76 133.5t105.5 87t115 47t105.5 13.5q55 0 104 -13.5t89 -29t71 -27.5t51 -12q18 0 58 13.5t89.5 30.5t102.5 30.5t100 13.5q39 0 85 -12.5t92 -37t88 -60t75 -80.5q-92 -51 -148.5 -143.5t-56.5 -205.5q0 -63 18.5 -120.5 t52.5 -105.5t80 -85t101 -57v-13q-27 -66 -52.5 -120t-45.5 -91q-25 -45 -47 -77q-57 -86 -131 -140.5t-150 -54.5q-37 0 -73.5 12.5t-72.5 26.5t-71 26.5t-71 12.5q-37 0 -78 -12.5t-83 -26.5t-84 -26.5t-81 -12.5q-78 0 -159 72.5t-173 245.5q-57 106 -87 214.5t-38 212.5 zM840 1374q-1 15 -1 29q0 49 11 91q14 54 33 93q23 45 49 82q33 33 74 62q35 23 87 45t117 28q1 -14 1 -27q0 -50 -12 -93q-15 -54 -34 -93q-22 -45 -49 -82q-33 -35 -74 -61q-35 -25 -86 -46.5t-116 -27.5z" />
<glyph unicode="v" horiz-adv-x="1880" d="M78 250v600h661v-711zM78 979v645l661 90v-735h-661zM866 119v731h963v-893zM866 979v754l963 133v-887h-963z" />
<glyph unicode="w" horiz-adv-x="1880" d="M137 -31l86 1184h195v145q0 219 99 342t278 123q180 0 279.5 -122.5t99.5 -342.5v-145h137v141q0 141 -39 229.5t-131 114.5q-20 25 -44 53.5t-85 59.5q6 2 19 1t20 -1q180 -10 274 -126t94 -331v-141h189l137 -1184h-1608zM250 76h983l70 985h-984zM524 1153h138v141 q0 61 4 106.5t14 80.5t29.5 63.5t50.5 61.5q21 8 42 8q14 0 26 -3q34 -7 59 -24q-31 -23 -52.5 -48.5t-36 -59t-21.5 -78.5t-7 -107v-141h295v145q0 176 -67.5 266.5t-202.5 90.5q-133 0 -202 -90t-69 -267v-145z" />
<glyph unicode="x" horiz-adv-x="2146" d="M82 367v1439q0 23 14.5 37.5t36.5 14.5h1897q23 0 37 -14.5t14 -37.5v-1439q0 -23 -14.5 -38.5t-36.5 -15.5h-676q2 -35 10 -76.5t18 -60.5q8 -12 29 -22q16 -10 46 -18q24 -6 58 -5h19v-182h-911v182q45 0 73.5 6t44.5 13q20 8 29 18q18 23 26.5 65.5t8.5 79.5h-672 q-23 0 -37 15.5t-14 38.5zM264 725q0 -23 14.5 -37t36.5 -14h1532q23 0 37 14t14 37v899q0 23 -14 37t-37 14h-1532q-23 0 -37 -14t-14 -37v-899z" />
<glyph unicode="y" horiz-adv-x="2027" d="M25 899q0 53 26 100q72 131 165 255t208 237q113 113 245 205t263 166q23 14 40 21t46 7h5q52 0 91 -22q266 -150 498 -377q223 -223 373 -494q25 -43 24 -98q0 -57 -24 -100q-145 -266 -373 -494q-115 -115 -238 -208t-254 -165q-20 -10 -46.5 -18t-55.5 -8t-55.5 8 t-49.5 20q-131 72 -253.5 165.5t-235.5 205.5q-227 227 -371 490q-12 23 -20 49t-8 55z" />
<glyph unicode="z" horiz-adv-x="2404" d="M63 20v1117q0 39 27 66.5t66 27.5h1622q39 0 66.5 -27.5t27.5 -66.5v-404l489 332v-985l-489 332v-392q0 -39 -27.5 -66.5t-66.5 -27.5h-1622q-39 0 -66 28t-27 66zM233 1493v299q0 39 28 65.5t67 26.5h469q39 0 65.5 -26.5t26.5 -65.5v-299q0 -39 -26.5 -65.5 t-65.5 -26.5h-469q-39 0 -67 26.5t-28 65.5zM397 418h1147v321h-1147v-321zM1053 1493v299q0 39 26.5 65.5t65.5 26.5h469q39 0 66.5 -26.5t27.5 -65.5v-299q0 -39 -27.5 -65.5t-66.5 -26.5h-469q-39 0 -65.5 26.5t-26.5 65.5z" />
<glyph unicode="{" horiz-adv-x="2080" d="M98 469v1225q0 41 30 70.5t73 29.5h1702q41 0 70.5 -29.5t29.5 -70.5v-1225q0 -41 -29.5 -71.5t-70.5 -30.5h-498v-449l-455 449h-749q-43 0 -73 30.5t-30 71.5zM457 719h1185v239h-1185v-239zM457 1196h1185v240h-1185v-240z" />
<glyph unicode="|" horiz-adv-x="2668" d="M113 74v1599l700 -653l-563 -764l698 637l381 -356l375 350l690 -631l-557 756l715 667v-1605q0 -33 -22.5 -55.5t-55.5 -22.5h-2284q-33 0 -55 22.5t-22 55.5zM213 1765h2232l-1116 -1042z" />
<glyph unicode="}" horiz-adv-x="1677" d="M111 -66v1747q0 23 15 38.5t38 15.5h1317q23 0 37 -15.5t14 -38.5v-1747q0 -23 -14.5 -38t-36.5 -15h-1317q-23 0 -38 15.5t-15 37.5zM293 360q0 -23 15.5 -38t37.5 -15h952q23 0 38.5 15.5t15.5 37.5v1151q0 23 -15.5 38.5t-38.5 15.5h-952q-23 0 -38 -15.5t-15 -38.5 v-1151zM723 117q0 -45 31.5 -76t74.5 -31q45 0 76 31t31 76q0 43 -31 74.5t-76 31.5q-43 0 -74.5 -31.5t-31.5 -74.5z" />
<glyph unicode="~" horiz-adv-x="2250" d="M57 821l1078 1061l1075 -1061h-299v-897h-541v606h-473v-606h-539v897h-301z" />
<glyph horiz-adv-x="1175" />
<glyph unicode="&#xc4;" horiz-adv-x="1140" d="M104 801l918 917l6 -4v-352l-563 -561l563 -563v-353l-6 -4z" />
<glyph unicode="&#xc5;" horiz-adv-x="1966" d="M150 -86v340l544 547l-544 545v342l4 4l893 -891l-893 -893zM965 -86v340l546 547l-546 545v342l6 4l891 -891l-891 -893z" />
<glyph unicode="&#xc7;" horiz-adv-x="1906" d="M115 811l884 885l5 -6v-338l-541 -541l541 -543v-338l-5 -4zM872 811l885 885l4 -6v-338l-540 -541l540 -543v-338l-4 -4z" />
<glyph unicode="&#xc9;" horiz-adv-x="1742" d="M106 1067h1526l-764 -760z" />
<glyph unicode="&#xd1;" horiz-adv-x="1798" d="M102 399l779 777l780 -777h-1559z" />
<glyph unicode="&#xd6;" horiz-adv-x="1437" d="M115 -45v1790l1216 -895z" />
<glyph unicode="&#xdc;" horiz-adv-x="1449" d="M100 793l1223 901v-1800z" />
<glyph unicode="&#xe0;" d="M109 635v432h682v684h432v-684h684v-432h-684v-682h-432v682h-682z" />
<glyph unicode="&#xe1;" horiz-adv-x="1925" d="M127 737q0 186 85 343t228 266q12 8 14.5 46t0.5 88t-5.5 103t0 95t14.5 64.5t40 8.5q27 -14 83 -53t122.5 -81t131 -74t111.5 -32q172 0 322.5 -60t262.5 -165.5t177.5 -247t65.5 -301.5t-65.5 -301t-177.5 -246.5t-262.5 -167t-322.5 -61.5q-170 0 -320.5 61.5 t-263 167t-177 247t-64.5 300.5zM924 1059q12 -35 20 -63.5t12 -51.5q6 -25 11 -47q2 -29 6 -55q2 -23 4 -48.5t0 -43.5l143 12q0 18 -2 42.5t-6 47.5q-4 25 -6 53q-4 27 -10 53q-6 23 -14.5 48.5t-20.5 48.5zM1282 1038q10 -33 19.5 -58.5t13.5 -45.5q6 -23 8 -43 q2 -25 6 -49q2 -23 4 -46.5t0 -39.5l140 12q0 16 -2.5 39.5t-6.5 44.5q-4 23 -6 47q-4 25 -10 49q-6 20 -14.5 44t-20.5 44z" />
<glyph unicode="&#xe2;" horiz-adv-x="1839" d="M109 -33q0 137 33.5 258t95 221.5t145.5 177t184 128.5q-96 76 -152.5 187.5t-56.5 242.5q0 115 43 215t118 176t175.5 119t214.5 43q115 0 215.5 -43t176 -119t118.5 -176.5t43 -214.5q0 -129 -54 -237.5t-146 -186.5q98 -49 179 -127t137 -179.5t88 -224.5t32 -260 h-1589z" />
<glyph unicode="&#xe3;" horiz-adv-x="1490" d="M55 1137q0 147 55.5 277t150.5 226.5t222.5 152.5t272.5 56t272 -56t222.5 -152.5t150.5 -226.5t55 -277q0 -76 -19.5 -141.5t-52 -123t-72.5 -109.5t-83 -104q-23 -29 -45.5 -57.5t-44.5 -56.5q-10 -12 -16.5 -52t-11.5 -87.5t-7 -91.5t-2 -64q0 -53 -2 -95t-12.5 -74 t-34 -53.5t-66.5 -33.5v-2q0 -29 -25.5 -48.5t-99.5 -19.5h-225q-72 0 -98.5 19.5t-26.5 48.5q0 2 2 4q-45 14 -68.5 36.5t-35 55.5t-13.5 77t-2 99q0 20 -3 64.5t-7 90.5t-12 85t-17 49l-37 45q-49 57 -96 116.5t-84 125t-60.5 138.5t-23.5 159zM152 1137 q0 -72 20.5 -135.5t54 -121t77.5 -111.5t91 -110l37 -43q31 -39 45.5 -87t14.5 -99q0 -47 2 -83t12 -63.5t31.5 -47t62.5 -29.5l18 371l-225 555q-10 25 2 43q10 18 29.5 24t36.5 -4l182 -100l111 121l125 -121l170 96q16 10 35.5 4t29.5 -22q12 -20 2 -41l2 -3l-227 -552 l31 -365q33 12 50 29.5t24.5 43t8.5 57.5t1 71q0 49 12 98t43 90q23 31 47 60.5t47 58.5q39 47 76 94t65.5 98.5t46 105.5t17.5 118q0 127 -47 239.5t-129 195.5t-192.5 131t-235.5 48t-234.5 -48t-191.5 -131t-130 -195.5t-48 -239.5zM500 1063l186 -457h139l185 451 l-146 -82l-106 102l-96 -102zM672 195q16 -2 34.5 -2h41.5q31 0 55 1t47 3l-31 362h-129z" />
<glyph unicode="&#xe4;" horiz-adv-x="2185" d="M98 883q0 125 50.5 235.5t136.5 193.5t201.5 130t248.5 47h1207v-299h-1207q-70 0 -131 -24.5t-107 -65.5t-73 -97.5t-27 -119.5t27 -118.5t73 -97.5t107.5 -65.5t130.5 -23.5h766v311l588 -455l-588 -454v299h-766q-133 0 -248.5 47t-201.5 129t-136.5 192.5 t-50.5 235.5z" />
<glyph unicode="&#xe5;" horiz-adv-x="1175" d="M92 -55v368l590 588l-590 590v367l6 6l961 -963l-961 -960z" />
<glyph unicode="&#xe7;" horiz-adv-x="2521" d="M94 8v1745q0 35 24.5 59.5t59.5 24.5h2185q35 0 59.5 -24.5t24.5 -59.5v-1745q0 -35 -24.5 -58.5t-59.5 -23.5h-2185q-35 0 -59.5 23.5t-24.5 58.5zM397 356q0 61 31 114.5t85 93.5t126 63.5t154 23.5q131 0 231 -56t141 -142q31 78 84.5 165t120 159.5t144 120.5 t157.5 48q86 0 165 -53t143.5 -133t110.5 -171t71 -167v1036q0 35 -25 59.5t-59 24.5h-1596q-35 0 -59.5 -24.5t-24.5 -59.5v-1102zM692 1176q0 45 17.5 84.5t47 69.5t69.5 47.5t85 17.5t85 -17.5t70 -47.5t47 -69.5t17 -84.5t-17 -85t-47 -70t-70 -47.5t-85 -17.5t-85 17.5 t-69.5 47.5t-47 69.5t-17.5 85.5z" />
<glyph unicode="&#xe8;" horiz-adv-x="612" d="M41 575v535h528v-535h-528z" />
<glyph unicode="&#xe9;" d="M76 37v1741q0 35 24.5 59.5t59.5 24.5h1741q35 0 59.5 -25t24.5 -59v-1741q0 -35 -25 -59.5t-59 -24.5h-1741q-35 0 -59.5 24.5t-24.5 59.5zM324 737h536v-538h340v538h537v338h-537v539h-340v-539h-536v-338z" />
<glyph unicode="&#xea;" horiz-adv-x="1890" d="M66 -47v1884h1738v-1884h-1738zM209 96h1450v1596h-1450v-1596zM354 242v145h1159v-145h-1159zM354 532v144h1159v-144h-1159zM354 821v146h1159v-146h-1159zM354 1112v143h1159v-143h-1159zM354 1401v145h1159v-145h-1159z" />
<glyph unicode="&#xeb;" d="M109 80v874h122v740v123h1606v-123v-740h123v-874q0 -47 -36 -81t-87 -34h-1606q-51 0 -86.5 34t-35.5 81zM356 954h1358v617h-174h-1055h-129v-617zM479 1077v123h1110v-123h-1110zM479 1323v125h1110v-125h-1110z" />
<glyph unicode="&#xec;" horiz-adv-x="2054" d="M4 891q0 141 37 272t103.5 245t159.5 207t207 159.5t245 103.5t272 37q211 0 397.5 -81t324.5 -219t219 -325.5t81 -398.5t-81 -397.5t-219 -324.5t-324.5 -219t-397.5 -81q-141 0 -272 37t-245 103.5t-207 159.5t-159.5 206.5t-103.5 244t-37 271.5zM872 412 q0 -68 47 -115t115 -47q66 0 113 47t47 115q0 66 -47 112.5t-113 46.5q-68 0 -115 -47t-47 -112zM893 831q0 -59 41 -100t100 -41t100.5 41t41.5 100v660q0 59 -41 100t-101 41q-59 0 -100 -41t-41 -100v-660z" />
<glyph unicode="&#xed;" horiz-adv-x="2056" d="M8 893q0 211 81 397.5t219 325.5t324.5 219t399.5 80q211 0 397.5 -80t325.5 -219t219 -325.5t80 -397.5q0 -213 -80 -399.5t-219 -324.5t-325.5 -219t-397.5 -81q-141 0 -272 37t-245 103.5t-207 159.5t-159.5 206.5t-103.5 245t-37 272.5zM758 498q-6 -45 3 -82 t35.5 -64t77.5 -33q78 -12 141.5 -3.5t112 26.5t82 41t52.5 39q23 18 -23 22q-39 0 -87 8.5t-62 39.5q-10 18 -4 57t21 87t37.5 101.5t47.5 100.5q25 45 32 97t-5.5 96t-45 76t-88.5 38q-66 6 -128 -16.5t-107 -49.5q-35 -18 -31 -27.5t17 -9.5q41 0 55 -29.5t11 -73.5 t-20.5 -95t-37.5 -92q-16 -33 -34.5 -75t-32 -88t-19.5 -91zM956 1432q0 -70 48 -118t118 -48t118 48t48 118q0 68 -48 115.5t-118 47.5t-118 -48t-48 -115z" />
<glyph unicode="&#xee;" d="M2 897q0 211 80 396.5t218 323.5t323.5 218t396.5 80t395 -80t322.5 -218t218.5 -323.5t80 -396.5t-80 -395.5t-218.5 -322.5t-322.5 -218t-395 -80t-396.5 80t-323.5 218t-218 322.5t-80 395.5zM356 825q0 -39 27 -65.5t68 -26.5h1122q39 0 66.5 26.5t27.5 65.5v95 q0 39 -27.5 66.5t-66.5 27.5h-1122q-41 0 -68 -28t-27 -66v-95z" />
<glyph unicode="&#xef;" horiz-adv-x="2027" d="M8 881q0 209 81 392t219 319.5t322.5 216t393.5 79.5t390 -78.5t315.5 -215t211 -318.5t76.5 -391t-76.5 -391.5t-211 -317.5t-315.5 -214t-390 -79t-393.5 78t-322.5 213t-219 317.5t-81 389.5zM505 824q1 -52 36 -89l307 -307q37 -37 89 -37t89 37l602 602q37 37 37 89 t-37 89l-22 23q-37 37 -89.5 37t-86.5 -37l-404 -404l-29 -28q-12 -12 -28.5 -27.5t-32.5 -30.5l-31.5 31.5t-27.5 28.5q-14 14 -29 26l-107 109q-37 37 -89 37t-89 -37l-22 -23q-37 -37 -36 -89z" />
<glyph unicode="&#xf1;" d="M6 893q0 209 80 394.5t218 322.5t322.5 217t395.5 80t395.5 -80t322.5 -217t218 -322.5t80 -394.5q0 -211 -80 -395.5t-218 -322.5t-322.5 -218t-395.5 -80t-395.5 80t-322.5 218t-218 322.5t-80 395.5zM574.5 1198q-3.5 -31 2 -55.5t18.5 -42t38 -23.5q39 -10 63.5 -5 t39 19.5t21.5 34t13 39.5q10 37 35.5 76t91.5 80q25 14 59.5 20.5t69.5 3t64.5 -13.5t46.5 -26q59 -59 41.5 -130t-127.5 -167q-98 -86 -139.5 -166t-43.5 -127q-2 -41 14.5 -80t69.5 -45q53 -4 89 21.5t46 66.5q14 55 40 97t79 89q27 25 68 59.5t78 80t62.5 99.5t21.5 120 t-37 124t-88.5 102t-129 69.5t-157.5 25.5q-109 0 -186.5 -29.5t-130 -73.5t-81 -93.5t-38.5 -85.5q-10 -33 -13.5 -64zM864 385q0 -55 39 -95t96 -40q55 0 94.5 40t39.5 95t-39 94t-95 39q-57 0 -96 -39t-39 -94z" />
<glyph unicode="&#xf2;" horiz-adv-x="2711" />
<glyph unicode="&#xf3;" horiz-adv-x="2050" d="M6 895q0 211 80 397.5t218 324.5t324.5 218t397.5 80t397.5 -80t324.5 -218t218 -324.5t80 -397.5t-80 -396.5t-218 -323.5t-324.5 -218t-397.5 -80t-397.5 80t-324.5 218t-218 323.5t-80 396.5zM545 412q0 -37 12 -65t49 -28h903q37 0 52.5 28t15.5 65v12 q0 37 -15.5 60.5t-52.5 23.5h-47q-4 35 -7 58.5t-6 41t-6 31.5t-7 33q-10 37 -28.5 68.5t-41.5 56t-47.5 43t-42.5 32.5q2 2 3 1t3 1q27 23 59.5 52.5t61.5 72.5q37 53 52 121t20 137h34q37 0 52.5 37t15.5 74v10q0 39 -26.5 53.5t-63.5 14.5h-856q-39 0 -62.5 -14.5 t-23.5 -53.5v-10q0 -37 12 -74t49 -37h31q4 -70 19.5 -137t52.5 -121q29 -45 62.5 -72.5t62.5 -49.5q4 0 4 -5q-20 -14 -45 -32.5t-47.5 -43t-42 -55t-27.5 -69.5q-4 -16 -8 -30.5t-7.5 -33t-6.5 -42t-5 -58.5h-43q-37 0 -49 -23.5t-12 -60.5v-12zM778 508q2 35 4 55.5 t5.5 33.5t5.5 22.5t6 23.5q10 43 47 76t69 55q31 20 53.5 41t22.5 55q0 35 -22.5 58.5t-53.5 50.5q-25 20 -52 46.5t-50 61.5q-8 12 -16.5 37t-10.5 41h539q0 -18 -9 -41.5t-20 -38.5q-23 -33 -49 -61.5t-49 -48.5q-31 -27 -51.5 -49.5t-20.5 -57.5t21.5 -55t50.5 -41 q31 -23 66.5 -54.5t46.5 -74.5q2 -14 5 -23.5t6 -22.5t6 -33.5t5 -55.5h-555z" />
<glyph unicode="&#x2000;" horiz-adv-x="961" />
<glyph unicode="&#x2001;" horiz-adv-x="1923" />
<glyph unicode="&#x2002;" horiz-adv-x="961" />
<glyph unicode="&#x2003;" horiz-adv-x="1923" />
<glyph unicode="&#x2004;" horiz-adv-x="641" />
<glyph unicode="&#x2005;" horiz-adv-x="480" />
<glyph unicode="&#x2006;" horiz-adv-x="320" />
<glyph unicode="&#x2007;" horiz-adv-x="320" />
<glyph unicode="&#x2008;" horiz-adv-x="240" />
<glyph unicode="&#x2009;" horiz-adv-x="384" />
<glyph unicode="&#x200a;" horiz-adv-x="106" />
<glyph unicode="&#x202f;" horiz-adv-x="384" />
<glyph unicode="&#x205f;" horiz-adv-x="480" />
<glyph unicode="&#xe000;" horiz-adv-x="1853" d="M0 0v1853h1853v-1853h-1853z" />
</font>
</defs>
</svg>
